<?xml version="1.0" encoding="utf-8"?>
<!DOCTYPE svg PUBLIC "-//W3C//DTD SVG 1.1//EN" "http://www.w3.org/Graphics/SVG/1.1/DTD/svg11.dtd">
<svg version="1.1" id="Ebene_1" xmlns="http://www.w3.org/2000/svg" xmlns:xlink="http://www.w3.org/1999/xlink" x="0px" y="0px"
	 width="30.003px" height="30.003px" viewBox="0 0 30.003 30.003" enable-background="new 0 0 30.003 30.003" xml:space="preserve">
<symbol  id="tick" viewBox="-32 -32 64 64">
	<path fill="#FFFFFF" d="M22.628,22.627C16.38,28.877,8.189,32,0,32s-16.379-3.123-22.628-9.373
		c-12.496-12.496-12.496-32.758,0-45.254C-16.379-28.875-8.189-32,0-32s16.38,3.125,22.628,9.373
		C35.124-10.131,35.124,10.131,22.628,22.627z M19.093-19.092C13.993-24.191,7.212-27,0-27s-13.992,2.809-19.093,7.908
		c-10.526,10.527-10.526,27.656,0,38.184C-13.992,24.191-7.212,27,0,27s13.993-2.809,19.093-7.908
		C29.619,8.564,29.619-8.564,19.093-19.092z"/>
	<polygon fill="#FFFFFF" points="-4.376,-1.543 -10.979,5.631 -18.272,-1.666 -18.274,-1.664 -4.525,-15.416 18.71,7.816 
		13.4,13.215 	"/>
</symbol>
<use xlink:href="#tick"  width="64" height="64" id="XMLID_1_" x="-32" y="-32" transform="matrix(0.4688 0 0 -0.4688 15.0015 15.0015)" overflow="visible"/>
</svg>
